<svg width="197" height="61" viewBox="0 0 197 61" fill="none" xmlns="http://www.w3.org/2000/svg">
<path d="M40.9694 23.4017C42.2069 23.7471 43.2574 24.1428 44.1208 24.5889C44.9986 25.035 45.7325 25.5027 46.3225 25.9919C46.9268 26.4668 47.4017 26.956 47.7471 27.4597C48.0924 27.9633 48.3586 28.4454 48.5457 28.9059C48.7328 29.3664 48.8479 29.7981 48.8911 30.201C48.9486 30.5895 48.9774 30.9205 48.9774 31.1939C48.9774 32.2012 48.7831 33.1006 48.3946 33.892C48.0205 34.6835 47.5096 35.3814 46.8621 35.9858C46.2145 36.5902 45.459 37.101 44.5956 37.5183C43.7466 37.9356 42.8545 38.2738 41.9191 38.5328C40.9837 38.8062 40.0268 39.0005 39.0483 39.1156C38.0698 39.2451 37.1416 39.3099 36.2638 39.3099C34.8392 39.3099 33.3642 39.166 31.8389 38.8782C30.3279 38.5904 28.7954 38.1227 27.2413 37.4752C26.8959 37.3313 26.7232 37.0794 26.7232 36.7197C26.7232 36.4751 26.8096 36.2808 26.9822 36.1369C27.1549 35.9786 27.342 35.8995 27.5435 35.8995C27.6442 35.8995 27.7521 35.921 27.8672 35.9642C29.2055 36.5254 30.5797 36.9499 31.99 37.2377C33.4002 37.5255 34.8176 37.6694 36.2422 37.6694C38.1849 37.6694 39.8541 37.4824 41.25 37.1082C42.6458 36.7341 43.7898 36.2448 44.682 35.6404C45.5886 35.0217 46.2577 34.3309 46.6894 33.5683C47.1211 32.7912 47.3369 32.0069 47.3369 31.2155C47.3369 30.3377 47.0923 29.5247 46.6031 28.7764C46.1282 28.0281 45.4447 27.359 44.5525 26.769C43.6747 26.179 42.617 25.6753 41.3795 25.258C40.1419 24.8407 38.7677 24.5313 37.2567 24.3299C36.2638 24.5025 35.2997 24.6249 34.3643 24.6968C33.429 24.7688 32.5656 24.8047 31.7741 24.8047H31.2777C31.1769 24.8047 31.0834 24.7975 30.9971 24.7831C29.961 27.2726 28.7234 29.4239 27.2844 31.2371C25.8598 33.0502 24.3345 34.554 22.7084 35.7484C21.0967 36.9283 19.4347 37.8061 17.7222 38.3817C16.0242 38.9429 14.391 39.2236 12.8224 39.2236C11.1964 39.2236 9.6998 38.9933 8.33275 38.5328C6.98008 38.0867 5.81449 37.4464 4.83597 36.6118C3.85745 35.7771 3.09477 34.7698 2.54795 33.5899C2.00113 32.3955 1.72772 31.0644 1.72772 29.5966C1.72772 28.0713 2.02272 26.4956 2.61271 24.8695C3.21709 23.229 4.10927 21.567 5.28926 19.8833C6.41168 18.3004 7.65642 16.883 9.02347 15.6311C10.3905 14.3648 11.8223 13.2567 13.3189 12.307C14.8299 11.3572 16.384 10.5442 17.9813 9.86787C19.5786 9.19154 21.1615 8.63752 22.73 8.20582C24.3129 7.77412 25.8526 7.46474 27.3492 7.27767C28.8601 7.07621 30.2776 6.97548 31.6014 6.97548C32.6807 6.97548 33.7096 7.01145 34.6881 7.0834C35.6666 7.15535 36.602 7.26328 37.4942 7.40718C38.0122 6.83157 38.4295 6.42146 38.7461 6.17683C39.0627 5.91781 39.2426 5.77391 39.2857 5.74513C39.4584 5.65879 39.6095 5.61562 39.739 5.61562C39.9405 5.61562 40.1203 5.67318 40.2786 5.7883C40.4369 5.90342 40.5161 6.0689 40.5161 6.28475C40.5161 6.57255 40.4153 6.81718 40.2139 7.01865C40.0124 7.20572 39.739 7.46474 39.3936 7.79571C42.027 8.44326 44.0416 9.42178 45.4375 10.7313C46.8333 12.0264 47.5312 13.6309 47.5312 15.5447C47.5312 16.5952 47.3585 17.5378 47.0132 18.3724C46.6678 19.207 46.1929 19.9409 45.5886 20.5741C44.9986 21.2072 44.3007 21.7612 43.4948 22.2361C42.7034 22.6966 41.8615 23.0851 40.9694 23.4017ZM37.2783 22.6894C37.9115 22.5743 38.559 22.4232 39.221 22.2361C39.8973 22.049 40.552 21.826 41.1852 21.567C41.8328 21.2936 42.4443 20.977 43.0199 20.6172C43.5955 20.2431 44.092 19.8114 44.5093 19.3221C44.941 18.8185 45.2792 18.2573 45.5238 17.6385C45.7828 17.0197 45.9123 16.3146 45.9123 15.5232C45.9123 13.9115 45.2432 12.5804 43.9049 11.5299C42.5667 10.4794 40.6456 9.70239 38.1417 9.19874C37.4222 10.0909 36.7459 11.0766 36.1127 12.1559C35.4796 13.2351 34.8968 14.3576 34.3643 15.5232C33.8319 16.6744 33.3498 17.8471 32.9181 19.0415C32.5008 20.2215 32.1555 21.3655 31.882 22.4735C32.1698 22.4592 32.4361 22.452 32.6807 22.452C32.9253 22.452 33.134 22.452 33.3067 22.452C33.8679 22.452 34.4794 22.4735 35.1414 22.5167C35.8033 22.5455 36.5156 22.6031 37.2783 22.6894ZM36.307 8.89655C35.5731 8.79582 34.8176 8.72386 34.0406 8.68069C33.2635 8.63752 32.4505 8.61594 31.6014 8.61594C30.3351 8.61594 28.9896 8.70947 27.565 8.89655C26.1404 9.08362 24.6798 9.37861 23.1833 9.78153C21.6867 10.1845 20.1758 10.7097 18.6504 11.3572C17.1395 11.9904 15.6645 12.7603 14.2255 13.6668C12.8009 14.559 11.441 15.6023 10.1459 16.7967C8.85079 17.9911 7.67081 19.3365 6.60594 20.8331C5.52669 22.3584 4.71365 23.8622 4.16683 25.3444C3.62001 26.8265 3.3466 28.2368 3.3466 29.575C3.3466 30.827 3.56965 31.9494 4.01574 32.9423C4.47622 33.9352 5.12377 34.777 5.95839 35.4678C6.79301 36.1441 7.79312 36.6693 8.95872 37.0435C10.1243 37.4032 11.4122 37.5831 12.8224 37.5831C14.2327 37.5831 15.7004 37.3313 17.2258 36.8276C18.7511 36.3096 20.2405 35.5253 21.6939 34.4748C23.1473 33.41 24.5287 32.0717 25.8382 30.46C27.1477 28.8339 28.2917 26.9057 29.2703 24.6752C29.0112 24.6752 28.745 24.6033 28.4716 24.4594C28.1982 24.3011 28.0615 24.0565 28.0615 23.7255C28.0615 23.3801 28.227 23.1355 28.5579 22.9916C28.8889 22.8333 29.407 22.7038 30.1121 22.6031C30.5006 21.4231 30.8963 20.2431 31.2993 19.0631C31.7022 17.8831 32.1483 16.7175 32.6375 15.5663C33.1268 14.4151 33.6664 13.2855 34.2564 12.1775C34.8464 11.0551 35.5299 9.96141 36.307 8.89655ZM64.4755 32.4243C64.3172 32.7552 64.1157 33.151 63.8711 33.6114C63.6409 34.0575 63.3746 34.5252 63.0725 35.0145C62.7703 35.5037 62.4321 35.993 62.058 36.4823C61.6838 36.9571 61.2737 37.3888 60.8276 37.7774C60.3959 38.1515 59.9282 38.4537 59.4246 38.6839C58.9353 38.9286 58.4101 39.0509 57.8489 39.0509C56.9855 39.0509 56.2444 38.7847 55.6256 38.2522C55.0068 37.7198 54.4816 37.0219 54.0499 36.1585C53.6182 35.2951 53.2656 34.3165 52.9922 33.2229C52.7332 32.1149 52.5318 30.9925 52.3879 29.8556C52.244 28.7044 52.1432 27.5892 52.0857 26.51C52.0425 25.4307 52.0209 24.4738 52.0209 23.6391C52.0209 22.4304 52.0569 21.1784 52.1288 19.8833C52.2152 18.5882 52.3447 17.3219 52.5174 16.0844C52.69 14.8468 52.9059 13.674 53.1649 12.566C53.4383 11.458 53.7549 10.4866 54.1147 9.65202C54.4888 8.8174 54.9133 8.15546 55.3882 7.6662C55.863 7.17694 56.4027 6.93231 57.0071 6.93231C57.4819 6.93231 57.9064 7.04743 58.2806 7.27767C58.6691 7.49352 58.9929 7.85327 59.2519 8.35692C59.5109 8.86057 59.7124 9.51532 59.8563 10.3212C60.0002 11.127 60.0721 12.1127 60.0721 13.2783C60.0721 14.7173 59.921 16.2067 59.6188 17.7464C59.3167 19.2718 58.9065 20.8115 58.3885 22.3656C57.8705 23.9197 57.2589 25.4739 56.5538 27.028C55.8487 28.5677 55.0932 30.0715 54.2873 31.5393C54.6471 33.3668 55.1292 34.8058 55.7335 35.8563C56.3379 36.8924 57.0646 37.4104 57.9136 37.4104C58.4892 37.4104 59.0432 37.1874 59.5757 36.7413C60.1081 36.2808 60.5974 35.7412 61.0435 35.1224C61.4896 34.5036 61.8781 33.8777 62.2091 33.2445C62.5544 32.5969 62.8206 32.0789 63.0077 31.6904C63.0797 31.5465 63.1804 31.4385 63.3099 31.3666C63.4394 31.2803 63.5833 31.2371 63.7416 31.2371C63.9862 31.2371 64.1805 31.3234 64.3244 31.4961C64.4827 31.6688 64.5618 31.863 64.5618 32.0789C64.5618 32.1652 64.533 32.2804 64.4755 32.4243ZM53.6614 23.7471C53.6614 24.668 53.683 25.553 53.7261 26.402C53.7693 27.251 53.8269 28.0641 53.8988 28.8411C54.5032 27.6755 55.0788 26.438 55.6256 25.1285C56.1724 23.8046 56.6545 22.4735 57.0718 21.1353C57.4891 19.7826 57.8201 18.4443 58.0647 17.1205C58.3237 15.7822 58.4533 14.5087 58.4533 13.2999C58.4533 11.6019 58.3165 10.3859 58.0431 9.65202C57.7697 8.91813 57.4028 8.55118 56.9423 8.55118C56.6401 8.55118 56.3451 8.75984 56.0573 9.17715C55.7839 9.59446 55.5249 10.1629 55.2803 10.8824C55.0356 11.6019 54.8126 12.4509 54.6111 13.4294C54.4097 14.4079 54.237 15.4584 54.0931 16.5808C53.9636 17.7032 53.8556 18.876 53.7693 20.0992C53.6973 21.3223 53.6614 22.5383 53.6614 23.7471ZM70.1955 35.9858C69.6919 36.806 69.1019 37.4536 68.4255 37.9284C67.7636 38.4033 67.0945 38.6408 66.4181 38.6408C65.8713 38.6408 65.3821 38.54 64.9504 38.3386C64.5187 38.1371 64.1445 37.8565 63.8279 37.4967C63.5114 37.1226 63.2667 36.6765 63.094 36.1585C62.9358 35.6404 62.8566 35.0576 62.8566 34.4101C62.8566 33.4028 62.9501 32.5106 63.1372 31.7335C63.3387 30.9565 63.5545 30.3089 63.7848 29.7909C64.015 29.2585 64.2309 28.8555 64.4323 28.5821C64.6338 28.3087 64.7345 28.172 64.7345 28.172C64.8065 28.0857 64.8928 28.0209 64.9935 27.9777C65.1086 27.9346 65.2238 27.913 65.3389 27.913C65.5691 27.913 65.7562 27.9993 65.9001 28.172C66.0584 28.3303 66.1375 28.5174 66.1375 28.7332C66.1375 28.8196 66.1159 28.9059 66.0728 28.9922C66.044 29.0786 66.008 29.1649 65.9649 29.2513C65.8929 29.3808 65.7778 29.5822 65.6195 29.8556C65.4612 30.1147 65.2957 30.46 65.123 30.8917C64.9504 31.3234 64.7993 31.8343 64.6697 32.4243C64.5402 32.9999 64.4755 33.6618 64.4755 34.4101C64.4755 35.2591 64.641 35.9066 64.9719 36.3527C65.3173 36.7844 65.7994 37.0003 66.4181 37.0003C66.6772 37.0003 66.9722 36.9211 67.3031 36.7629C67.6485 36.5902 67.9795 36.3312 68.296 35.9858C68.627 35.6404 68.9148 35.2015 69.1594 34.6691C69.4041 34.1367 69.5624 33.5107 69.6343 32.7912L69.9581 29.0786C69.9869 28.8627 70.0804 28.6828 70.2387 28.5389C70.397 28.395 70.5841 28.3231 70.7999 28.3231C71.0445 28.3231 71.2388 28.4166 71.3827 28.6037C71.5266 28.7764 71.5986 28.9778 71.5986 29.2081L71.3179 32.7912C71.2892 33.0934 71.2964 33.4891 71.3395 33.9784C71.3971 34.4676 71.505 34.9497 71.6633 35.4246C71.8216 35.8995 72.059 36.3096 72.3756 36.6549C72.6922 36.9859 73.1095 37.1514 73.6275 37.1514C74.0017 37.1514 74.3686 37.0579 74.7284 36.8708C75.0881 36.6693 75.4335 36.4103 75.7645 36.0937C76.0954 35.7771 76.3976 35.4246 76.671 35.0361C76.9588 34.6331 77.2179 34.2302 77.4481 33.8273C77.6927 33.4244 77.9014 33.043 78.0741 32.6833C78.2468 32.3091 78.3907 31.9926 78.5058 31.7335C78.5777 31.5752 78.6785 31.4529 78.808 31.3666C78.9375 31.2803 79.0814 31.2371 79.2397 31.2371C79.4987 31.2371 79.7001 31.3234 79.844 31.4961C79.9879 31.6688 80.0599 31.8559 80.0599 32.0573C80.0599 32.1724 80.0383 32.2804 79.9951 32.3811C79.9376 32.4962 79.8225 32.7408 79.6498 33.115C79.4915 33.4747 79.2756 33.892 79.0022 34.3669C78.7432 34.8274 78.4266 35.3167 78.0525 35.8347C77.6783 36.3527 77.261 36.8348 76.8006 37.2809C76.3401 37.7126 75.8364 38.0723 75.2896 38.3602C74.7572 38.6336 74.1816 38.7703 73.5628 38.7703C72.7138 38.7703 72.0087 38.5328 71.4475 38.058C70.8862 37.5687 70.4689 36.878 70.1955 35.9858ZM81.1176 36.029C81.4198 36.4463 81.8083 36.7844 82.2832 37.0435C82.758 37.2881 83.3408 37.4104 84.0315 37.4104C84.7367 37.4104 85.377 37.2449 85.9526 36.914C86.5282 36.5686 87.0535 36.1225 87.5283 35.5757C88.0032 35.0289 88.4277 34.4173 88.8018 33.7409C89.176 33.0646 89.5141 32.3883 89.8163 31.712C89.8883 31.5537 89.989 31.4385 90.1185 31.3666C90.248 31.2803 90.3919 31.2371 90.5502 31.2371C90.7949 31.2371 90.9891 31.3234 91.133 31.4961C91.2913 31.6688 91.3705 31.8559 91.3705 32.0573C91.3705 32.1293 91.3633 32.194 91.3489 32.2516C91.3345 32.2947 91.3129 32.3451 91.2841 32.4027C90.2912 34.59 89.2048 36.2376 88.0248 37.3457C86.8592 38.4537 85.5353 39.0221 84.0531 39.0509C83.1034 39.0509 82.2832 38.8638 81.5924 38.4897C80.9017 38.1299 80.3333 37.6622 79.8872 37.0866C79.4411 36.4966 79.1102 35.8347 78.8943 35.1008C78.6785 34.3669 78.5705 33.633 78.5705 32.8991C78.5705 32.1652 78.6569 31.4889 78.8295 30.8701C79.0166 30.2514 79.2756 29.7117 79.6066 29.2513C79.952 28.7908 80.3549 28.431 80.8154 28.172C81.2902 27.913 81.8083 27.7835 82.3695 27.7835C82.7005 27.7835 83.0242 27.8554 83.3408 27.9993C83.6718 28.1288 83.9668 28.3231 84.2258 28.5821C84.4848 28.8267 84.6935 29.1289 84.8518 29.4887C85.0101 29.8484 85.0892 30.2586 85.0892 30.719C85.0892 31.309 84.9885 31.863 84.787 32.3811C84.5856 32.8991 84.305 33.3812 83.9452 33.8273C83.5998 34.2734 83.1825 34.6835 82.6933 35.0576C82.204 35.4318 81.6788 35.7556 81.1176 36.029ZM80.47 34.6259C80.9161 34.4389 81.319 34.2014 81.6788 33.9136C82.0529 33.6258 82.3695 33.3092 82.6285 32.9639C82.8875 32.6185 83.089 32.2588 83.2329 31.8846C83.3768 31.4961 83.4487 31.1076 83.4487 30.719C83.4487 30.2873 83.3408 29.9636 83.125 29.7477C82.9091 29.5175 82.6573 29.4024 82.3695 29.4024C81.981 29.4024 81.65 29.5103 81.3766 29.7261C81.1032 29.942 80.8801 30.2226 80.7074 30.5679C80.5348 30.9133 80.4053 31.3018 80.3189 31.7335C80.247 32.1508 80.211 32.5682 80.211 32.9855C80.211 33.2445 80.2326 33.5179 80.2757 33.8057C80.3333 34.0935 80.3981 34.3669 80.47 34.6259ZM100.911 32.3811C100.911 33.705 100.674 34.8346 100.199 35.7699C99.7239 36.7053 99.1411 37.4176 98.4504 37.9069H98.5367C99.3857 37.9069 100.156 37.7198 100.846 37.3457C101.551 36.9571 102.185 36.4679 102.746 35.8779C103.307 35.2735 103.811 34.6044 104.257 33.8705C104.703 33.1366 105.099 32.4243 105.444 31.7335C105.516 31.5752 105.617 31.4529 105.746 31.3666C105.89 31.2803 106.041 31.2371 106.199 31.2371C106.444 31.2371 106.638 31.3234 106.782 31.4961C106.926 31.6688 106.998 31.8559 106.998 32.0573C106.998 32.1724 106.976 32.2804 106.933 32.3811C106.559 33.2157 106.113 34.0575 105.595 34.9065C105.077 35.7412 104.473 36.4966 103.782 37.173C103.091 37.8493 102.314 38.3961 101.451 38.8134C100.587 39.2451 99.6304 39.461 98.5799 39.461C97.8172 39.461 97.0761 39.3387 96.3566 39.094C95.6371 38.8638 95.004 38.4969 94.4571 37.9932C94.2557 37.8349 94.083 37.6694 93.9391 37.4967C93.7952 37.3097 93.6801 37.137 93.5937 36.9787C93.565 36.9499 93.5506 36.9211 93.5506 36.8924C93.4642 36.7629 93.4211 36.6262 93.4211 36.4823C93.4211 36.2952 93.4858 36.1225 93.6153 35.9642C93.6297 35.9354 93.6441 35.921 93.6585 35.921C93.6729 35.9066 93.6873 35.8923 93.7017 35.8779C93.8456 35.7484 94.0038 35.6764 94.1765 35.662H94.2413C94.3132 35.662 94.3636 35.6692 94.3924 35.6836C94.4068 35.6836 94.414 35.6908 94.414 35.7052C94.4284 35.7052 94.4427 35.7052 94.4571 35.7052C94.5003 35.7052 94.5507 35.7196 94.6082 35.7484C94.6226 35.7627 94.637 35.7699 94.6514 35.7699C94.7809 35.8563 94.8888 35.9642 94.9752 36.0937C95.0759 36.2664 95.191 36.4247 95.3205 36.5686C95.4357 36.6837 95.5724 36.7916 95.7307 36.8924C95.8889 36.9787 96.0688 37.0219 96.2703 37.0219C96.63 37.0219 96.9898 36.914 97.3495 36.6981C97.7093 36.4823 98.0331 36.1729 98.3209 35.7699C98.6087 35.367 98.8389 34.8778 99.0116 34.3022C99.1987 33.7266 99.2922 33.0862 99.2922 32.3811C99.2922 31.863 99.2346 31.4242 99.1195 31.0644C99.0188 30.6903 98.8821 30.3881 98.7094 30.1578C98.5511 29.9276 98.3784 29.7621 98.1914 29.6614C98.0043 29.5463 97.8244 29.4887 97.6517 29.4887C97.2632 29.4887 96.8675 29.6902 96.4645 30.0931C96.076 30.496 95.6875 31.0068 95.299 31.6256C94.9104 32.2444 94.5219 32.9279 94.1334 33.6762C93.7592 34.4245 93.3779 35.1512 92.9894 35.8563C92.9606 38.1875 92.9174 40.4107 92.8598 42.5261C92.8167 44.6414 92.7303 46.6056 92.6008 48.4188C92.4857 50.2319 92.3202 51.8724 92.1044 53.3402C91.8885 54.808 91.5935 56.0599 91.2194 57.096C90.8452 58.1465 90.3848 58.9523 89.8379 59.5135C89.2911 60.0747 88.622 60.3553 87.8305 60.3553C87.5859 60.3553 87.3053 60.305 86.9887 60.2042C86.6721 60.1035 86.3771 59.8948 86.1037 59.5783C85.8303 59.2761 85.6001 58.8372 85.413 58.2616C85.2259 57.686 85.1324 56.9161 85.1324 55.952C85.1324 54.7288 85.2835 53.3114 85.5857 51.6997C85.8879 50.088 86.3196 48.3756 86.8808 46.5625C87.4276 44.7637 88.0823 42.9146 88.845 41.0151C89.6077 39.1156 90.4495 37.2665 91.3705 35.4678C91.3705 34.9641 91.3705 34.4676 91.3705 33.9784C91.3849 33.4891 91.3921 33.0143 91.3921 32.5538C91.205 32.7696 90.9819 32.8775 90.7229 32.8775C90.4783 32.8775 90.284 32.7912 90.1401 32.6185C89.9962 32.4458 89.9243 32.2588 89.9243 32.0573C89.9243 31.9566 89.9459 31.8487 89.989 31.7335C90.3344 30.9421 90.6006 30.1938 90.7877 29.4887C90.9747 28.7692 91.1115 28.1432 91.1978 27.6108C91.2985 27.064 91.3561 26.6323 91.3705 26.3157C91.3849 25.9991 91.3921 25.8336 91.3921 25.8192C91.3921 25.6034 91.4712 25.4163 91.6295 25.258C91.7878 25.0997 91.982 25.0206 92.2123 25.0206C92.4281 25.0206 92.6152 25.0997 92.7735 25.258C92.9318 25.4019 93.0109 25.589 93.0109 25.8192V32.4458C93.3419 31.8846 93.6729 31.3306 94.0038 30.7838C94.3348 30.237 94.6802 29.7477 95.0399 29.316C95.4141 28.8843 95.8098 28.5389 96.2271 28.2799C96.6588 28.0065 97.1337 27.8698 97.6517 27.8698C98.141 27.8698 98.5871 27.9849 98.99 28.2152C99.3929 28.4454 99.7383 28.762 100.026 29.1649C100.314 29.5678 100.53 30.0499 100.674 30.6111C100.832 31.1579 100.911 31.7479 100.911 32.3811ZM91.3273 39.3099C90.6222 40.8928 89.9818 42.4829 89.4062 44.0802C88.845 45.6775 88.3701 47.2172 87.9816 48.6994C87.5787 50.1816 87.2693 51.5702 87.0535 52.8653C86.8376 54.1604 86.7297 55.2972 86.7297 56.2757C86.7297 56.5204 86.7441 56.7866 86.7729 57.0744C86.8016 57.3622 86.8592 57.6284 86.9455 57.873C87.0319 58.1177 87.1542 58.3191 87.3125 58.4774C87.4708 58.6501 87.6794 58.7364 87.9384 58.7364C88.4133 58.7364 88.8234 58.4343 89.1688 57.8299C89.5142 57.2399 89.802 56.434 90.0322 55.4123C90.2768 54.405 90.4783 53.2395 90.6366 51.9156C90.7949 50.6061 90.9172 49.2318 91.0035 47.7928C91.1043 46.3538 91.1762 44.9004 91.2194 43.4326C91.2625 41.9792 91.2985 40.605 91.3273 39.3099ZM107.732 29.5319C107.674 29.9204 107.602 30.2873 107.516 30.6327C107.43 30.9637 107.343 31.2587 107.257 31.5177C107.185 31.7623 107.12 31.9638 107.063 32.1221C107.005 32.2804 106.969 32.3667 106.955 32.3811C106.811 32.7121 106.559 32.8775 106.199 32.8775C105.998 32.8775 105.811 32.8056 105.638 32.6617C105.466 32.5034 105.379 32.3091 105.379 32.0789C105.379 31.9926 105.394 31.9278 105.422 31.8846C105.451 31.8415 105.494 31.7551 105.552 31.6256C105.609 31.4961 105.681 31.2803 105.768 30.9781C105.854 30.6759 105.962 30.2082 106.091 29.575C105.847 29.575 105.595 29.5678 105.336 29.5534C105.077 29.5391 104.84 29.4887 104.624 29.4024C104.393 29.316 104.206 29.1793 104.062 28.9922C103.919 28.8052 103.847 28.5461 103.847 28.2152C103.847 27.9705 103.919 27.6396 104.062 27.2223C104.192 26.8049 104.372 26.3948 104.602 25.9919C104.832 25.589 105.091 25.2436 105.379 24.9558C105.667 24.6536 105.955 24.5025 106.243 24.5025C106.574 24.5025 106.84 24.6249 107.041 24.8695C107.257 25.1141 107.423 25.4163 107.538 25.7761C107.653 26.1214 107.732 26.4884 107.775 26.8769C107.833 27.2654 107.861 27.6036 107.861 27.8914C108.106 27.8914 108.344 27.8914 108.574 27.8914C108.818 27.877 109.049 27.8698 109.264 27.8698C110.085 27.8698 110.711 28.0497 111.142 28.4094C111.574 28.7692 111.79 29.3592 111.79 30.1794C111.79 30.5104 111.768 30.8557 111.725 31.2155C111.682 31.5752 111.632 31.9494 111.574 32.3379C111.517 32.7121 111.466 33.0862 111.423 33.4603C111.38 33.8345 111.358 34.2014 111.358 34.5612C111.358 35.0792 111.43 35.5109 111.574 35.8563C111.718 36.1873 111.898 36.4535 112.114 36.6549C112.33 36.8564 112.56 37.0003 112.804 37.0866C113.049 37.1586 113.272 37.1946 113.474 37.1946C114.092 37.1946 114.675 36.9931 115.222 36.5902C115.769 36.1873 116.272 35.7052 116.733 35.144C117.193 34.5684 117.604 33.964 117.963 33.3308C118.337 32.6977 118.647 32.1437 118.891 31.6688C118.963 31.5393 119.064 31.4385 119.194 31.3666C119.323 31.2946 119.46 31.2587 119.604 31.2587C119.863 31.2587 120.064 31.345 120.208 31.5177C120.352 31.676 120.424 31.8559 120.424 32.0573C120.424 32.2012 120.395 32.3307 120.338 32.4458C120.007 33.0358 119.618 33.705 119.172 34.4533C118.74 35.1871 118.244 35.8779 117.683 36.5254C117.121 37.173 116.488 37.7198 115.783 38.1659C115.092 38.612 114.33 38.835 113.495 38.835C112.977 38.835 112.488 38.7343 112.027 38.5328C111.567 38.3458 111.164 38.0723 110.819 37.7126C110.488 37.3385 110.221 36.8852 110.02 36.3527C109.818 35.8059 109.718 35.1943 109.718 34.518C109.718 33.7985 109.79 33.0862 109.934 32.3811C110.078 31.6616 110.149 30.9781 110.149 30.3305C110.149 30.0571 110.085 29.8556 109.955 29.7261C109.84 29.5822 109.574 29.5103 109.157 29.5103C108.955 29.5103 108.732 29.5103 108.487 29.5103C108.257 29.5103 108.005 29.5175 107.732 29.5319ZM106.286 27.9346C106.286 27.8338 106.279 27.7043 106.264 27.546C106.264 27.3734 106.25 27.2079 106.221 27.0496C106.207 26.8913 106.178 26.7546 106.135 26.6395C106.106 26.5243 106.07 26.4668 106.027 26.4668C105.984 26.4668 105.926 26.5243 105.854 26.6395C105.796 26.7402 105.732 26.8697 105.66 27.028C105.588 27.1719 105.523 27.3302 105.466 27.5029C105.408 27.6755 105.365 27.8194 105.336 27.9346H106.286ZM122.41 21.459C122.41 22.0059 122.216 22.4735 121.827 22.8621C121.453 23.2362 120.992 23.4233 120.446 23.4233C119.899 23.4233 119.431 23.2362 119.043 22.8621C118.668 22.4735 118.481 22.0059 118.481 21.459C118.481 21.1856 118.532 20.9338 118.632 20.7036C118.733 20.4589 118.87 20.2503 119.043 20.0776C119.23 19.8905 119.438 19.7466 119.668 19.6459C119.913 19.5452 120.172 19.4948 120.446 19.4948C120.719 19.4948 120.971 19.5452 121.201 19.6459C121.446 19.7466 121.654 19.8905 121.827 20.0776C122.014 20.2503 122.158 20.4589 122.259 20.7036C122.359 20.9338 122.41 21.1856 122.41 21.459ZM118.913 34.1079C118.913 32.0357 119.043 29.9708 119.302 27.913C119.33 27.7115 119.417 27.5388 119.561 27.3949C119.719 27.2367 119.92 27.1575 120.165 27.1575C120.381 27.1575 120.561 27.2438 120.705 27.4165C120.848 27.5748 120.92 27.7619 120.92 27.9777C120.92 28.0641 120.899 28.3231 120.856 28.7548C120.827 29.1865 120.784 29.7045 120.726 30.3089C120.683 30.8989 120.64 31.5321 120.597 32.2084C120.568 32.8704 120.553 33.4819 120.553 34.0431C120.553 34.8058 120.625 35.4246 120.769 35.8995C120.928 36.3599 121.122 36.7197 121.352 36.9787C121.597 37.2377 121.849 37.4104 122.108 37.4967C122.381 37.5831 122.64 37.6263 122.885 37.6263C123.288 37.6263 123.705 37.4824 124.137 37.1946C124.568 36.9068 125.007 36.5038 125.453 35.9858C125.914 35.4678 126.374 34.849 126.835 34.1295C127.295 33.3956 127.748 32.5825 128.195 31.6904C128.267 31.5465 128.367 31.4385 128.497 31.3666C128.626 31.2803 128.77 31.2371 128.928 31.2371C129.159 31.2371 129.346 31.3234 129.49 31.4961C129.648 31.6688 129.727 31.8559 129.727 32.0573C129.727 32.2012 129.698 32.3235 129.641 32.4243C129.468 32.7552 129.252 33.1582 128.993 33.633C128.734 34.1079 128.439 34.5972 128.108 35.1008C127.777 35.6045 127.41 36.1081 127.007 36.6118C126.619 37.101 126.202 37.5471 125.755 37.95C125.309 38.3386 124.842 38.6551 124.352 38.8998C123.863 39.1444 123.367 39.2667 122.863 39.2667C122.216 39.2667 121.647 39.13 121.158 38.8566C120.669 38.5832 120.251 38.2162 119.906 37.7558C119.575 37.2953 119.323 36.7557 119.15 36.1369C118.992 35.5037 118.913 34.8274 118.913 34.1079ZM121.201 21.459C121.201 21.2576 121.122 21.0849 120.964 20.941C120.82 20.7827 120.647 20.7036 120.446 20.7036C120.244 20.7036 120.071 20.7827 119.927 20.941C119.784 21.0849 119.712 21.2576 119.712 21.459C119.712 21.6605 119.784 21.8332 119.927 21.9771C120.071 22.121 120.244 22.1929 120.446 22.1929C120.647 22.1929 120.82 22.121 120.964 21.9771C121.122 21.8332 121.201 21.6605 121.201 21.459ZM132.965 36.4607C133.195 35.9858 133.461 35.4678 133.764 34.9065C134.066 34.3309 134.389 33.7553 134.735 33.1797C135.08 32.5897 135.44 32.0069 135.814 31.4313C136.203 30.8557 136.606 30.3089 137.023 29.7909C137.44 29.2872 137.857 28.9275 138.275 28.7116C138.707 28.4814 139.109 28.3663 139.484 28.3663C140.232 28.3663 140.786 28.6397 141.146 29.1865C141.505 29.7333 141.685 30.4097 141.685 31.2155C141.685 31.4026 141.671 31.6328 141.642 31.9062C141.628 32.1652 141.606 32.4458 141.577 32.748C141.563 33.0502 141.541 33.3596 141.513 33.6762C141.498 33.9784 141.491 34.2662 141.491 34.5396C141.491 34.885 141.505 35.2159 141.534 35.5325C141.577 35.8491 141.649 36.1297 141.75 36.3743C141.851 36.6046 141.995 36.7916 142.182 36.9355C142.369 37.065 142.613 37.1298 142.916 37.1298C143.462 37.1298 143.995 36.9211 144.513 36.5038C145.031 36.0721 145.506 35.5685 145.937 34.9929C146.384 34.4029 146.765 33.8057 147.082 33.2013C147.412 32.5969 147.657 32.1077 147.815 31.7335C147.887 31.5752 147.988 31.4529 148.118 31.3666C148.261 31.2803 148.413 31.2371 148.571 31.2371C148.816 31.2371 149.01 31.3306 149.154 31.5177C149.312 31.6904 149.391 31.8774 149.391 32.0789C149.391 32.1796 149.37 32.2804 149.326 32.3811C149.269 32.4962 149.154 32.7336 148.981 33.0934C148.808 33.4531 148.578 33.8705 148.29 34.3453C148.017 34.8058 147.693 35.3023 147.319 35.8347C146.945 36.3527 146.527 36.8276 146.067 37.2593C145.621 37.691 145.132 38.0508 144.599 38.3386C144.081 38.6264 143.534 38.7703 142.959 38.7703C142.311 38.7703 141.786 38.648 141.383 38.4033C140.98 38.1443 140.664 37.8133 140.433 37.4104C140.203 36.9931 140.045 36.5398 139.958 36.0505C139.886 35.5469 139.851 35.0432 139.851 34.5396C139.851 34.3237 139.858 34.0791 139.872 33.8057C139.901 33.5323 139.93 33.2445 139.958 32.9423C140.002 32.6401 140.03 32.3379 140.045 32.0357C140.074 31.7335 140.088 31.4457 140.088 31.1723C140.088 30.7118 140.016 30.4025 139.872 30.2442C139.728 30.0715 139.599 29.9851 139.484 29.9851C139.253 29.9851 138.987 30.1219 138.685 30.3953C138.397 30.6543 138.088 30.9996 137.757 31.4313C137.44 31.863 137.109 32.3523 136.764 32.8991C136.433 33.4316 136.116 33.964 135.814 34.4964C135.526 35.0289 135.253 35.5397 134.994 36.029C134.749 36.5038 134.555 36.8996 134.411 37.2161C134.123 37.8205 133.835 38.2234 133.548 38.4249C133.26 38.6408 132.965 38.7487 132.663 38.7487C132.245 38.7487 131.907 38.6264 131.648 38.3817C131.404 38.1227 131.281 37.763 131.281 37.3025C131.281 37.2018 131.296 37.0075 131.324 36.7197C131.353 36.4175 131.389 36.0649 131.432 35.662C131.476 35.2447 131.519 34.7986 131.562 34.3237C131.605 33.8489 131.648 33.3812 131.691 32.9207C131.735 32.4458 131.771 32.0069 131.799 31.604C131.828 31.2011 131.842 30.8629 131.842 30.5895C131.842 30.2298 131.828 29.8844 131.799 29.5534C131.771 29.2225 131.713 29.021 131.627 28.9491C131.497 28.9922 131.267 29.2656 130.936 29.7693C130.605 30.2586 130.18 31.1292 129.662 32.3811C129.59 32.5394 129.482 32.6617 129.339 32.748C129.195 32.8344 129.044 32.8775 128.885 32.8775C128.641 32.8775 128.446 32.7984 128.303 32.6401C128.159 32.4674 128.087 32.2732 128.087 32.0573C128.087 31.9566 128.108 31.8487 128.151 31.7335C128.799 30.1938 129.403 29.0642 129.965 28.3447C130.54 27.6108 131.109 27.2438 131.67 27.2438C132.001 27.2438 132.281 27.3302 132.512 27.5029C132.742 27.6612 132.922 27.877 133.051 28.1504C133.195 28.4238 133.296 28.726 133.353 29.057C133.425 29.388 133.461 29.7261 133.461 30.0715C133.461 30.3305 133.44 30.7334 133.397 31.2803C133.368 31.8271 133.325 32.4171 133.267 33.0502C133.21 33.669 133.152 34.2878 133.094 34.9065C133.051 35.5253 133.008 36.0434 132.965 36.4607ZM165.342 16.7967C165.342 17.0269 165.263 17.214 165.105 17.3579C164.947 17.4874 164.752 17.5522 164.522 17.5522H153.579V17.7896C153.579 18.6674 153.514 19.6027 153.384 20.5956C153.255 21.5886 153.075 22.5815 152.845 23.5744C152.629 24.5529 152.377 25.5098 152.089 26.4452C151.816 27.3806 151.528 28.244 151.226 29.0354C150.938 29.8269 150.65 30.5176 150.362 31.1076C150.075 31.6832 149.816 32.1149 149.585 32.4027C149.772 33.0646 149.995 33.6834 150.255 34.259C150.514 34.8202 150.801 35.3167 151.118 35.7484C151.449 36.1657 151.801 36.4966 152.176 36.7413C152.55 36.9859 152.953 37.1082 153.384 37.1082C153.888 37.1082 154.384 36.8996 154.874 36.4823C155.377 36.0505 155.838 35.5469 156.255 34.9713C156.687 34.3813 157.061 33.7913 157.378 33.2013C157.709 32.5969 157.946 32.1149 158.09 31.7551C158.234 31.4098 158.486 31.2371 158.845 31.2371C159.09 31.2371 159.284 31.3234 159.428 31.4961C159.586 31.6688 159.666 31.8559 159.666 32.0573C159.666 32.158 159.644 32.2588 159.601 32.3595C159.558 32.4602 159.45 32.6905 159.277 33.0502C159.119 33.41 158.903 33.8273 158.63 34.3022C158.37 34.777 158.061 35.2807 157.701 35.8131C157.356 36.3312 156.96 36.806 156.514 37.2377C156.082 37.6694 155.615 38.0292 155.111 38.317C154.607 38.6048 154.075 38.7487 153.514 38.7487C152.521 38.7487 151.629 38.4249 150.837 37.7774C150.046 37.1298 149.37 36.2232 148.808 35.0576C148.261 33.892 147.844 32.5106 147.556 30.9133C147.269 29.316 147.125 27.5676 147.125 25.6681C147.125 25.1933 147.132 24.6392 147.146 24.0061C147.161 23.3585 147.189 22.6822 147.233 21.9771C147.276 21.2576 147.341 20.5237 147.427 19.7754C147.513 19.0127 147.628 18.2717 147.772 17.5522H140.023C139.793 17.5522 139.599 17.4874 139.44 17.3579C139.282 17.214 139.203 17.0269 139.203 16.7967C139.203 16.5664 139.282 16.3866 139.44 16.2571C139.599 16.1131 139.793 16.0412 140.023 16.0412H148.139C148.283 15.5232 148.449 15.0483 148.636 14.6166C148.837 14.1849 149.06 13.8107 149.305 13.4942C149.564 13.1776 149.844 12.933 150.147 12.7603C150.463 12.5732 150.809 12.4797 151.183 12.4797C151.542 12.4797 151.852 12.5732 152.111 12.7603C152.384 12.933 152.614 13.1776 152.802 13.4942C152.989 13.8107 153.133 14.1849 153.233 14.6166C153.348 15.0483 153.435 15.5232 153.492 16.0412H164.522C164.752 16.0412 164.947 16.1131 165.105 16.2571C165.263 16.3866 165.342 16.5664 165.342 16.7967ZM149.089 30.2442C149.521 29.2944 149.909 28.2727 150.255 27.1791C150.614 26.0711 150.916 24.9558 151.161 23.8334C151.42 22.711 151.614 21.6101 151.744 20.5309C151.888 19.4516 151.96 18.4587 151.96 17.5522H149.413C149.211 18.4443 149.046 19.5524 148.916 20.8763C148.801 22.1857 148.744 23.783 148.744 25.6681C148.744 26.7186 148.772 27.6036 148.83 28.3231C148.887 29.0282 148.974 29.6686 149.089 30.2442ZM151.096 14.0985C150.967 14.0985 150.78 14.2424 150.535 14.5302C150.29 14.8037 150.046 15.3073 149.801 16.0412H151.873C151.801 15.4368 151.694 14.9619 151.55 14.6166C151.42 14.2712 151.269 14.0985 151.096 14.0985ZM149.434 31.7983V31.8199V31.7983Z" fill="#343A3E"/>
<path d="M168.882 38.2392C167.697 38.2392 166.75 37.8306 166.039 37.0133C165.329 36.1842 164.973 34.9525 164.973 33.318C164.973 31.6835 165.329 30.4517 166.039 29.6226C166.762 28.7817 167.715 28.3613 168.9 28.3613C169.397 28.3613 169.829 28.4264 170.196 28.5567C170.564 28.6751 170.883 28.8409 171.156 29.0541C171.428 29.2673 171.659 29.5042 171.849 29.7648H171.955C171.943 29.6108 171.92 29.3858 171.884 29.0897C171.861 28.7817 171.849 28.5389 171.849 28.3613V24.5593H173.412V38.0615H172.151L171.92 36.7824H171.849C171.659 37.0548 171.428 37.3035 171.156 37.5285C170.883 37.7417 170.558 37.9135 170.179 38.0438C169.812 38.174 169.379 38.2392 168.882 38.2392ZM169.13 36.9423C170.137 36.9423 170.842 36.6698 171.245 36.125C171.659 35.5684 171.866 34.7333 171.866 33.62V33.3357C171.866 32.1513 171.671 31.2453 171.28 30.6175C170.889 29.978 170.167 29.6582 169.113 29.6582C168.272 29.6582 167.638 29.9957 167.212 30.6708C166.797 31.3341 166.59 32.2283 166.59 33.3535C166.59 34.4905 166.797 35.3729 167.212 36.0007C167.638 36.6284 168.278 36.9423 169.13 36.9423ZM184.715 33.2825C184.715 34.076 184.609 34.7807 184.396 35.3966C184.194 36.0007 183.898 36.5159 183.507 36.9423C183.128 37.3686 182.661 37.6944 182.104 37.9194C181.559 38.1326 180.949 38.2392 180.274 38.2392C179.646 38.2392 179.066 38.1326 178.533 37.9194C178 37.6944 177.538 37.3686 177.147 36.9423C176.756 36.5159 176.448 36.0007 176.223 35.3966C176.01 34.7807 175.904 34.076 175.904 33.2825C175.904 32.2283 176.081 31.34 176.437 30.6175C176.792 29.8832 177.301 29.3265 177.964 28.9475C178.628 28.5567 179.415 28.3613 180.327 28.3613C181.192 28.3613 181.95 28.5567 182.601 28.9475C183.265 29.3265 183.78 29.8832 184.147 30.6175C184.526 31.34 184.715 32.2283 184.715 33.2825ZM177.52 33.2825C177.52 34.0286 177.615 34.68 177.804 35.2367C178.006 35.7815 178.314 36.202 178.728 36.4981C179.143 36.7942 179.67 36.9423 180.31 36.9423C180.949 36.9423 181.476 36.7942 181.891 36.4981C182.305 36.202 182.607 35.7815 182.797 35.2367C182.998 34.68 183.099 34.0286 183.099 33.2825C183.099 32.5244 182.998 31.8789 182.797 31.346C182.595 30.813 182.287 30.4043 181.873 30.1201C181.47 29.824 180.943 29.6759 180.292 29.6759C179.321 29.6759 178.616 29.9957 178.178 30.6353C177.739 31.2749 177.52 32.1573 177.52 33.2825ZM191.013 38.2392C190.172 38.2392 189.42 38.0674 188.757 37.724C188.105 37.3805 187.59 36.8475 187.211 36.125C186.844 35.4025 186.66 34.4787 186.66 33.3535C186.66 32.181 186.856 31.2275 187.247 30.4932C187.637 29.7588 188.165 29.2199 188.828 28.8765C189.503 28.533 190.267 28.3613 191.12 28.3613C191.605 28.3613 192.073 28.4145 192.523 28.5211C192.973 28.6159 193.34 28.7343 193.625 28.8765L193.145 30.1734C192.861 30.0668 192.529 29.9661 192.15 29.8714C191.771 29.7766 191.416 29.7292 191.084 29.7292C190.444 29.7292 189.917 29.8654 189.503 30.1379C189.088 30.4103 188.78 30.813 188.579 31.346C188.378 31.8789 188.277 32.5422 188.277 33.3357C188.277 34.0938 188.378 34.7393 188.579 35.2723C188.78 35.8052 189.082 36.2079 189.485 36.4803C189.888 36.7528 190.391 36.889 190.995 36.889C191.516 36.889 191.972 36.8357 192.363 36.7291C192.766 36.6225 193.133 36.4922 193.465 36.3382V37.724C193.145 37.8898 192.79 38.0141 192.399 38.0971C192.02 38.1918 191.558 38.2392 191.013 38.2392Z" fill="#006FEE"/>
</svg>
