<svg width="44" height="46" viewBox="0 0 44 46" fill="none" xmlns="http://www.w3.org/2000/svg">
<path d="M22.2708 20.6193C22.2387 20.5764 22.1976 20.5416 22.1507 20.5178C22.1038 20.4939 22.0523 20.4814 22.0001 20.4814C21.9479 20.4814 21.8965 20.4939 21.8496 20.5178C21.8027 20.5416 21.7616 20.5764 21.7294 20.6193L16.9169 26.9848C16.8772 27.0377 16.8526 27.1013 16.8459 27.1682C16.8391 27.2351 16.8505 27.3026 16.8788 27.3631C16.907 27.4235 16.951 27.4745 17.0056 27.51C17.0602 27.5456 17.1233 27.5644 17.1876 27.5643H20.363V38.4533C20.363 38.651 20.5177 38.8127 20.7068 38.8127H23.2849C23.4739 38.8127 23.6286 38.651 23.6286 38.4533V27.5687H26.8126C27.1005 27.5687 27.2595 27.2228 27.0833 26.9893L22.2708 20.6193Z" fill="#48566E"/>
<path d="M34.8648 16.4729C32.8969 11.0463 27.8824 7.1875 22.0086 7.1875C16.1348 7.1875 11.1203 11.0418 9.15234 16.4684C5.46992 17.4791 2.75 20.9875 2.75 25.1562C2.75 30.1201 6.5957 34.1406 11.3395 34.1406H13.0625C13.2516 34.1406 13.4062 33.9789 13.4062 33.7812V31.0859C13.4062 30.8883 13.2516 30.7266 13.0625 30.7266H11.3395C9.89141 30.7266 8.5293 30.1246 7.51523 29.033C6.50547 27.9459 5.96836 26.4814 6.01562 24.9631C6.0543 23.7771 6.44102 22.6631 7.14141 21.7242C7.85898 20.7674 8.86445 20.0711 9.98164 19.7611L11.6102 19.3164L12.2074 17.6723C12.577 16.648 13.0926 15.6912 13.7414 14.8242C14.3819 13.9649 15.1407 13.2095 15.993 12.5826C17.759 11.2844 19.8387 10.5971 22.0086 10.5971C24.1785 10.5971 26.2582 11.2844 28.0242 12.5826C28.8793 13.2115 29.6355 13.9662 30.2758 14.8242C30.9246 15.6912 31.4402 16.6525 31.8098 17.6723L32.4027 19.3119L34.027 19.7611C36.3559 20.417 37.9844 22.6316 37.9844 25.1562C37.9844 26.6432 37.4301 28.0447 36.4246 29.0959C35.9315 29.6144 35.3449 30.0255 34.6988 30.3054C34.0527 30.5853 33.3599 30.7285 32.6605 30.7266H30.9375C30.7484 30.7266 30.5938 30.8883 30.5938 31.0859V33.7812C30.5938 33.9789 30.7484 34.1406 30.9375 34.1406H32.6605C37.4043 34.1406 41.25 30.1201 41.25 25.1562C41.25 20.992 38.5387 17.4881 34.8648 16.4729Z" fill="#48566E"/>
</svg>
