<svg width="14" height="12" viewBox="0 0 14 12" fill="none" xmlns="http://www.w3.org/2000/svg">
<g clip-path="url(#clip0_6007_1197)">
<path d="M1.81589 10.1713L2.38241 11.1436C2.50013 11.3483 2.66933 11.5092 2.86799 11.6262C3.43699 10.9085 3.83307 10.3577 4.05623 9.97388C4.2827 9.58439 4.56105 8.97516 4.89126 8.14618C4.00128 8.02976 3.32688 7.97156 2.86804 7.97156C2.42764 7.97156 1.7532 8.02976 0.844727 8.14618C0.844727 8.3728 0.903586 8.59943 1.02131 8.80416L1.81589 10.1713Z" fill="#0066DA"/>
<path d="M11.6677 11.6262C11.8665 11.5092 12.0357 11.3483 12.1533 11.1437L12.3888 10.7416L13.5145 8.80416C13.63 8.60386 13.6909 8.37704 13.691 8.14618C12.7773 8.02976 12.1041 7.97156 11.6715 7.97156C11.2065 7.97156 10.5333 8.02976 9.65186 8.14618C9.97815 8.97971 10.2528 9.58895 10.4759 9.97388C10.7008 10.3622 11.0981 10.913 11.6677 11.6262Z" fill="#EA4335"/>
<path d="M7.26838 4.05189C7.92673 3.2618 8.38043 2.65257 8.62949 2.22418C8.83007 1.87923 9.05079 1.32847 9.29165 0.571889C9.09299 0.454912 8.86493 0.396423 8.62949 0.396423H5.90728C5.67184 0.396423 5.44383 0.462242 5.24512 0.571889C5.55154 1.4396 5.81154 2.05713 6.0251 2.42448C6.26114 2.83046 6.67557 3.37293 7.26838 4.05189Z" fill="#00832D"/>
<path d="M9.64325 8.14624H4.8904L2.86719 11.6262C3.0658 11.7432 3.29386 11.8017 3.5293 11.8017H11.0044C11.2398 11.8017 11.4679 11.7359 11.6665 11.6262L9.64325 8.14624Z" fill="#2684FC"/>
<path d="M7.26768 4.05191L5.24447 0.57196C5.04576 0.688938 4.87656 0.849744 4.75884 1.05448L1.02131 7.48808C0.905757 7.68837 0.844886 7.9152 0.844727 8.14607H4.89126L7.26768 4.05191Z" fill="#00AC47"/>
<path d="M11.6452 4.27131L9.77638 1.05448C9.65871 0.849744 9.48945 0.688938 9.29079 0.57196L7.26758 4.05196L9.64395 8.14612H13.6832C13.6832 7.91944 13.6243 7.69287 13.5066 7.48813L11.6452 4.27131Z" fill="#FFBA00"/>
</g>
<defs>
<clipPath id="clip0_6007_1197">
<rect width="12.8053" height="11.4547" fill="white" transform="translate(0.845215 0.396545)"/>
</clipPath>
</defs>
</svg>
