<svg width="14" height="20" viewBox="0 0 14 20" fill="none" xmlns="http://www.w3.org/2000/svg">
<path d="M13.8275 0.851608C13.8768 0.847366 13.6146 1.13927 13.245 1.50002C12.1416 2.5766 11.1291 4.29936 10.3371 6.44901C9.83297 7.81736 9.27128 8.61567 8.44122 9.14296C7.88687 9.49522 8.09868 9.51313 8.82473 9.1751C9.12183 9.03685 9.3822 8.9235 9.40331 8.9235C9.48541 8.92479 8.89631 10.4427 8.43568 11.4168C7.85623 12.6423 7.51189 13.1599 6.6955 14.0326C6.19413 14.5686 4.56529 15.7901 4.35069 15.7911C4.31978 15.7911 4.49628 15.4158 4.74361 14.9576C5.23454 14.0482 5.94016 12.2899 6.35189 10.9491C6.58582 10.187 6.59863 10.0671 6.47382 9.81686C6.34671 9.56214 6.35166 9.53126 6.52924 9.47493C6.79899 9.38928 6.96217 9.1035 7.2702 8.17699C7.41584 7.7387 7.65415 7.17052 7.79946 6.91453C8.26454 6.09481 7.7034 6.7424 7.15216 7.66159C6.66022 8.48185 6.23493 9.46101 5.07059 12.4582C3.69668 15.9945 2.49053 17.9125 0.881409 19.1174C0.513134 19.3933 0.193095 19.6001 0.170373 19.5774C0.148223 19.5543 0.255697 19.3864 0.409787 19.2039C0.835845 18.6992 1.16234 17.9209 1.1635 17.406L1.1646 16.9505L1.76369 16.9422C2.44349 16.933 2.78732 16.758 3.08379 16.2705C3.34223 15.8455 3.45374 15.2828 3.63411 13.484C3.83588 11.4716 3.9582 10.6845 4.25703 9.4788C5.1049 6.05715 7.22751 3.53943 10.4918 2.08304C11.3931 1.68094 13.5812 0.872993 13.8275 0.851608Z" fill="white"/>
</svg>
