<svg width="45" height="57" viewBox="0 0 45 57" fill="none" xmlns="http://www.w3.org/2000/svg">
<path d="M0.550642 0.000488281C0.905937 0.350836 1.22369 0.682426 1.49888 1.09912C1.56272 1.19449 1.62647 1.28993 1.69224 1.38818C1.75907 1.48872 1.82652 1.58929 1.89537 1.69287C2.8768 3.13786 3.94129 4.43857 5.16978 5.68115C5.25933 5.77208 5.34901 5.86287 5.44127 5.95654C6.0619 6.5728 6.71815 7.10185 7.42857 7.61084C7.54306 7.69609 7.65729 7.78179 7.77525 7.86963C12.2936 11.1153 17.2104 12.4732 22.7313 12.6997C24.6593 12.7823 26.4976 12.9079 28.3553 13.4644C28.553 13.5178 28.7513 13.5707 28.9491 13.6235C31.2754 14.271 33.6613 15.445 35.5262 16.9771C35.7303 17.1327 35.9352 17.2876 36.1395 17.4429C39.8848 20.3503 42.4309 24.2326 43.7674 28.7661C43.8207 28.9447 43.8205 28.9453 43.8749 29.1274C44.3869 30.9636 44.5071 32.8317 44.4989 34.73C44.4985 34.8777 44.4993 34.8781 44.4989 35.0288C44.4876 37.5089 44.0761 39.6644 43.2831 42.0015C43.2348 42.1597 43.1863 42.318 43.1366 42.481C42.8144 43.5239 42.3796 44.4324 41.8192 45.3677C41.7652 45.4582 41.7108 45.5488 41.6551 45.6421C39.0096 50.0558 35.2419 53.4713 30.4042 55.3188C30.2238 55.3879 30.2232 55.388 30.0389 55.4585C24.7007 57.457 18.4824 57.1658 13.3036 54.8384C11.6424 54.0516 10.139 53.1539 8.74595 51.9526C8.61779 51.8429 8.48932 51.7336 8.35728 51.6206C6.34445 49.8501 4.72755 47.9614 3.36021 45.6626C3.24883 45.4757 3.13659 45.2891 3.02232 45.104C2.30683 43.9397 1.84406 42.754 1.45592 41.4438C1.41523 41.307 1.37479 41.1698 1.33287 41.0288C0.614798 38.4564 0.488071 35.9844 0.500837 33.3276C0.500961 32.9627 0.501085 32.5978 0.500837 32.2329C0.500738 31.4522 0.501279 30.6708 0.503767 29.8901C0.50736 28.7616 0.509077 27.633 0.509626 26.5044C0.510583 24.6724 0.513271 22.8403 0.517439 21.0083C0.521479 19.2306 0.524367 17.453 0.526228 15.6753C0.526401 15.5106 0.527028 15.5101 0.527204 15.3423C0.527777 14.791 0.527635 14.2393 0.528181 13.688C0.532719 9.12575 0.540841 4.56272 0.550642 0.000488281ZM14.8719 29.8442C14.8697 30.4161 14.8686 30.9882 14.8641 31.5601C14.8592 32.1183 14.8541 32.6766 14.8524 33.2349C14.852 33.449 14.8513 33.6633 14.8504 33.8774C14.8333 35.3795 14.8462 36.8062 15.5458 38.1753C15.6597 38.334 15.6606 38.3342 15.7723 38.4897C16.8971 40.1805 17.9949 41.1961 19.869 42.0015C21.6306 42.7336 23.592 42.6186 25.3387 41.9009C27.5394 40.8582 28.9583 39.3897 29.8758 37.1265C30.369 35.5266 30.4206 33.3585 29.7206 31.8169C29.6551 31.6972 29.5917 31.5805 29.5282 31.4644C28.9704 30.411 28.3232 29.5984 27.41 28.8306C27.2845 28.7311 27.1618 28.6342 27.0399 28.5376C25.2819 27.1059 23.2095 26.9846 21.035 26.9136C20.6324 26.9008 20.2296 26.8862 19.827 26.8706C19.5706 26.8603 19.3139 26.8494 19.0575 26.8394C18.6442 26.8262 18.2339 26.808 17.8211 26.7817C17.5285 26.6354 17.5278 26.635 17.2528 26.605C17.0864 26.5968 17.0859 26.5974 16.9227 26.5894C16.8015 26.5831 16.6839 26.5769 16.5663 26.5708C16.4393 26.5649 16.3154 26.559 16.1922 26.5532C15.7595 26.5312 15.3263 26.5093 14.8934 26.4888C14.8841 27.607 14.8766 28.726 14.8719 29.8442Z" fill="#006FEE"/>
</svg>
