<svg width="20" height="20" viewBox="0 0 20 20" fill="none" xmlns="http://www.w3.org/2000/svg">
<path fill-rule="evenodd" clip-rule="evenodd" d="M5 4.99992C5 4.55789 5.17559 4.13397 5.48816 3.82141C5.80072 3.50885 6.22464 3.33325 6.66667 3.33325H13.3333C13.7754 3.33325 14.1993 3.50885 14.5118 3.82141C14.8244 4.13397 15 4.55789 15 4.99992V14.9999C15 15.4419 14.8244 15.8659 14.5118 16.1784C14.1993 16.491 13.7754 16.6666 13.3333 16.6666H6.66667C6.22464 16.6666 5.80072 16.491 5.48816 16.1784C5.17559 15.8659 5 15.4419 5 14.9999V4.99992ZM7.90833 14.6649L7.90917 14.6608L7.9125 14.6441C7.93271 14.5465 7.95438 14.4493 7.9775 14.3524C8.02167 14.1624 8.085 13.9108 8.16 13.6608C8.21833 13.4658 8.28167 13.2816 8.345 13.1333C8.42333 13.2908 8.50583 13.4866 8.595 13.7008L8.62 13.7624C8.7175 13.9983 8.8225 14.2516 8.925 14.4499C8.98083 14.5566 9.0475 14.6708 9.125 14.7624C9.18667 14.8349 9.34167 14.9999 9.58333 14.9999C9.855 14.9999 10.0333 14.8366 10.1317 14.7191C10.22 14.6124 10.2925 14.4799 10.3425 14.3883L10.3542 14.3683L10.4158 14.2591C10.4331 14.288 10.4533 14.3241 10.4767 14.3674L10.4875 14.3866C10.5375 14.4783 10.6108 14.6116 10.7 14.7199C10.8 14.8383 10.9783 14.9999 11.25 14.9999C11.4633 14.9999 11.6725 14.8916 11.8083 14.8133C11.9658 14.7216 12.1275 14.6049 12.2675 14.4949C12.4308 14.367 12.5892 14.233 12.7425 14.0933L12.7817 14.0566L12.785 14.0541C12.8657 13.9785 12.913 13.874 12.9166 13.7635C12.9202 13.653 12.8798 13.5456 12.8042 13.4649C12.7286 13.3842 12.624 13.3369 12.5136 13.3333C12.4031 13.3297 12.2957 13.3702 12.215 13.4458L12.2133 13.4474L12.2067 13.4541L12.18 13.4783C12.0428 13.6035 11.9011 13.7236 11.755 13.8383C11.6386 13.9314 11.5161 14.0165 11.3883 14.0933C11.355 14.1121 11.3275 14.1269 11.3058 14.1374C11.2714 14.0812 11.2386 14.0239 11.2075 13.9658L11.2025 13.9574C11.1386 13.8331 11.0617 13.7158 10.9733 13.6074C10.9062 13.5238 10.8216 13.4559 10.7254 13.4086C10.6292 13.3612 10.5239 13.3355 10.4167 13.3333C10.15 13.3333 9.9675 13.4833 9.86 13.6058C9.76 13.7208 9.68167 13.8616 9.62833 13.9574L9.62 13.9741C9.5475 13.8241 9.47 13.6383 9.38583 13.4333L9.365 13.3824C9.26335 13.1231 9.14734 12.8697 9.0175 12.6233C8.95631 12.5086 8.88191 12.4015 8.79583 12.3041C8.7175 12.2208 8.56083 12.0833 8.33333 12.0833C8.10333 12.0833 7.94667 12.2233 7.86833 12.3108C7.78083 12.4083 7.71083 12.5274 7.655 12.6391C7.53551 12.8915 7.43739 13.1536 7.36167 13.4224C7.25619 13.7755 7.16638 14.1331 7.0925 14.4941V14.4991L7.09167 14.5008C7.07329 14.6077 7.09733 14.7175 7.15868 14.807C7.22002 14.8965 7.31384 14.9585 7.42019 14.9798C7.52654 15.0012 7.63704 14.9803 7.72819 14.9215C7.81935 14.8627 7.88397 14.7706 7.90833 14.6649ZM7.5 5.44992C7.38949 5.44992 7.28351 5.49382 7.20537 5.57196C7.12723 5.6501 7.08333 5.75608 7.08333 5.86659C7.08333 5.97709 7.12723 6.08307 7.20537 6.16121C7.28351 6.23935 7.38949 6.28325 7.5 6.28325H12.5C12.6105 6.28325 12.7165 6.23935 12.7946 6.16121C12.8728 6.08307 12.9167 5.97709 12.9167 5.86659C12.9167 5.75608 12.8728 5.6501 12.7946 5.57196C12.7165 5.49382 12.6105 5.44992 12.5 5.44992H7.5ZM7.08333 7.70825C7.08333 7.59774 7.12723 7.49176 7.20537 7.41362C7.28351 7.33548 7.38949 7.29159 7.5 7.29159H12.5C12.6105 7.29159 12.7165 7.33548 12.7946 7.41362C12.8728 7.49176 12.9167 7.59774 12.9167 7.70825C12.9167 7.81876 12.8728 7.92474 12.7946 8.00288C12.7165 8.08102 12.6105 8.12492 12.5 8.12492H7.5C7.38949 8.12492 7.28351 8.08102 7.20537 8.00288C7.12723 7.92474 7.08333 7.81876 7.08333 7.70825ZM7.5 9.16658C7.38949 9.16658 7.28351 9.21048 7.20537 9.28862C7.12723 9.36676 7.08333 9.47274 7.08333 9.58325C7.08333 9.69376 7.12723 9.79974 7.20537 9.87788C7.28351 9.95602 7.38949 9.99992 7.5 9.99992H12.5C12.6105 9.99992 12.7165 9.95602 12.7946 9.87788C12.8728 9.79974 12.9167 9.69376 12.9167 9.58325C12.9167 9.47274 12.8728 9.36676 12.7946 9.28862C12.7165 9.21048 12.6105 9.16658 12.5 9.16658H7.5Z" fill="white"/>
</svg>
