<svg width="20" height="13" viewBox="0 0 20 13" fill="none" xmlns="http://www.w3.org/2000/svg">
<g clip-path="url(#clip0_6007_1206)">
<path d="M11.8385 8.79923L15.5948 5.08355C14.8146 1.93654 11.7156 0.0397342 8.67312 0.846854C7.30304 1.21027 6.11306 2.08874 5.33545 3.31078C5.39353 3.30931 11.8385 8.79923 11.8385 8.79923Z" fill="#0364B8"/>
<path d="M7.78408 4.01035L7.78394 4.01101C7.06614 3.55124 6.23836 3.3082 5.39407 3.30933C5.37459 3.30933 5.3554 3.31058 5.33592 3.3108C2.82464 3.34301 0.814017 5.47488 0.845082 8.07249C0.856363 9.01472 1.14099 9.93172 1.66208 10.7047L7.28967 9.97562L11.6042 6.37715L7.78408 4.01035Z" fill="#0078D4"/>
<path d="M15.5951 5.08343C15.5121 5.07736 15.4288 5.07415 15.3456 5.07379C14.8417 5.07327 14.343 5.17973 13.8805 5.38658L13.8803 5.38621L11.604 6.37701L14.1135 9.58335L18.5998 10.7113C19.568 8.85234 18.8958 6.53348 17.0984 5.53202C16.634 5.27327 16.1214 5.12027 15.5951 5.08343Z" fill="#1490DF"/>
<path d="M1.6626 10.705C2.08124 11.3276 2.63934 11.8361 3.28923 12.1871C3.93911 12.5382 4.66149 12.7213 5.39466 12.7209H15.3464C16.0136 12.7211 16.6685 12.5344 17.2414 12.1807C17.8144 11.827 18.284 11.3195 18.6006 10.7119L11.6047 6.37744L1.6626 10.705Z" fill="#28A8EA"/>
</g>
<defs>
<clipPath id="clip0_6007_1206">
<rect width="18.1982" height="11.7293" fill="white" transform="translate(0.845215 0.660889)"/>
</clipPath>
</defs>
</svg>
