<svg width="16" height="16" viewBox="0 0 16 16" fill="none" xmlns="http://www.w3.org/2000/svg">
<path d="M14.6973 6.86488L4.80742 1.22142C4.5989 1.10461 4.35976 1.05406 4.12181 1.07648C3.88385 1.09891 3.65837 1.19324 3.47534 1.34695C3.29231 1.50066 3.16042 1.70644 3.0972 1.93694C3.03398 2.16743 3.04244 2.41171 3.12145 2.63728L4.89746 7.89589L3.12145 13.1545C3.05901 13.3319 3.03999 13.5217 3.06599 13.7079C3.09199 13.8942 3.16225 14.0715 3.27088 14.2251C3.37951 14.3786 3.52335 14.5038 3.69035 14.5903C3.85735 14.6768 4.04265 14.722 4.23072 14.7222C4.43296 14.7218 4.63172 14.6695 4.80801 14.5704L4.81331 14.5668L14.6997 8.91336C14.8809 8.81075 15.0317 8.66187 15.1366 8.48193C15.2416 8.30198 15.2968 8.09742 15.2968 7.88912C15.2968 7.68083 15.2416 7.47626 15.1366 7.29631C15.0317 7.11637 14.8809 6.96749 14.6997 6.86488H14.6973ZM4.65383 13.0309L6.14973 8.60206H9.40929C9.59658 8.60206 9.77619 8.52766 9.90863 8.39523C10.0411 8.26279 10.1155 8.08318 10.1155 7.89589C10.1155 7.7086 10.0411 7.52898 9.90863 7.39655C9.77619 7.26412 9.59658 7.18972 9.40929 7.18972H6.14973L4.65324 2.75969L13.6428 7.88942L4.65383 13.0309Z" fill="white"/>
</svg>
