<svg width="19" height="18" viewBox="0 0 19 18" fill="none" xmlns="http://www.w3.org/2000/svg">
<path d="M14.3844 13.5479C14.5824 13.3499 14.904 13.3491 15.1021 13.5469L18.6891 17.1338C18.8869 17.3319 18.8861 17.6535 18.6881 17.8516C18.4901 18.049 18.1702 18.0491 17.9723 17.8516L14.3844 14.2646C14.1867 14.0667 14.1869 13.7459 14.3844 13.5479ZM8.44589 0C12.648 0 16.0551 3.40636 16.0553 7.6084L16.0455 8C15.8419 12.0204 12.5169 15.2178 8.44589 15.2178L8.05429 15.208C4.03424 15.004 0.837494 11.6792 0.837494 7.6084C0.837705 3.40649 4.24398 0.000210789 8.44589 0ZM8.44687 1.01465C4.80495 1.01465 1.85214 3.96745 1.85214 7.60938L1.86093 7.94824C2.03191 11.32 4.73528 14.0234 8.10703 14.1943L8.44589 14.2021L8.44687 14.2031C11.9747 14.2028 14.8552 11.4322 15.0318 7.94824L15.0406 7.60938C15.0406 4.08131 12.2699 1.20012 8.78574 1.02344L8.44687 1.01465Z" fill="#006FEE"/>
<mask id="mask0_6035_1968" style="mask-type:luminance" maskUnits="userSpaceOnUse" x="0" y="0" width="19" height="18">
<path d="M14.3844 13.5479C14.5824 13.3499 14.904 13.3491 15.1021 13.5469L18.6891 17.1338C18.8869 17.3319 18.8861 17.6535 18.6881 17.8516C18.4901 18.049 18.1702 18.0491 17.9723 17.8516L14.3844 14.2646C14.1867 14.0667 14.1869 13.7459 14.3844 13.5479ZM8.44589 0C12.648 0 16.0551 3.40636 16.0553 7.6084L16.0455 8C15.8419 12.0204 12.5169 15.2178 8.44589 15.2178L8.05429 15.208C4.03424 15.004 0.837494 11.6792 0.837494 7.6084C0.837705 3.40649 4.24398 0.000210789 8.44589 0ZM8.44687 1.01465C4.80495 1.01465 1.85214 3.96745 1.85214 7.60938L1.86093 7.94824C2.03191 11.32 4.73528 14.0234 8.10703 14.1943L8.44589 14.2021L8.44687 14.2031C11.9747 14.2028 14.8552 11.4322 15.0318 7.94824L15.0406 7.60938C15.0406 4.08131 12.2699 1.20012 8.78574 1.02344L8.44687 1.01465Z" fill="white"/>
</mask>
<g mask="url(#mask0_6035_1968)">
</g>
</svg>
