<svg width="18" height="18" viewBox="0 0 18 18" fill="none" xmlns="http://www.w3.org/2000/svg">
<path fill-rule="evenodd" clip-rule="evenodd" d="M14.1202 0C12.0703 0 10.4179 1.417 8.81989 2.78748C7.37347 4.0278 6.00728 5.19925 4.49297 5.19925H1.98121C0.888681 5.19925 0 6.11896 0 7.25009V8.9833C0 10.1142 0.888681 11.0339 1.98121 11.0339H2.09268V15.0492C2.09268 16.1801 2.98156 17.1 4.07409 17.1H4.91127C6.0038 17.1 6.89249 16.1801 6.89249 15.0492V11.9135C7.53219 12.3433 8.16765 12.8873 8.81931 13.4463C10.4175 14.8164 12.0699 16.2338 14.1198 16.2338C15.9351 16.2336 17.3571 12.6683 17.3571 8.1169C17.3571 3.56525 15.9351 0 14.1202 0ZM6.27882 15.0494C6.27882 15.8297 5.66534 16.4646 4.91147 16.4646H4.07428C3.32021 16.4646 2.70674 15.8297 2.70674 15.0494V11.0339H4.49297C5.1076 11.0339 5.69774 11.2294 6.27882 11.5414V15.0494ZM9.21139 12.9568C7.74491 11.6989 6.22848 10.3985 4.49297 10.3985H1.98121C1.22734 10.3985 0.613861 9.76367 0.613861 8.9833V7.25009C0.613861 6.46972 1.22734 5.83469 1.98121 5.83469H4.49278C6.22829 5.83469 7.74452 4.53407 9.2112 3.27678C10.2831 2.35767 11.381 1.41879 12.5796 0.947261C11.5615 2.29998 10.8829 4.97267 10.8829 8.1169C10.8829 11.2605 11.5613 13.9334 12.5792 15.2857C11.381 14.8146 10.2831 13.8757 9.21139 12.9568ZM14.1202 15.5982C12.8533 15.5982 11.4969 12.5921 11.4969 8.1169C11.4969 3.64151 12.8531 0.635234 14.1202 0.635234C15.3868 0.635234 16.7432 3.64151 16.7432 8.1169C16.743 12.5921 15.3868 15.5982 14.1202 15.5982Z" fill="white"/>
</svg>
