<svg width="24" height="25" viewBox="0 0 24 25" fill="none" xmlns="http://www.w3.org/2000/svg">
<rect width="24" height="24" rx="3" transform="matrix(-1 0 0 1 24 0.5)" fill="white"/>
<path d="M13.0004 4.75C14.2715 4.75007 15.5231 5.06279 16.6449 5.66061C17.7666 6.25842 18.7241 7.12298 19.433 8.17809C20.1419 9.23319 20.5803 10.4465 20.7097 11.711C20.8391 12.9755 20.6555 14.2524 20.1751 15.4292C19.6947 16.6061 18.9321 17.6466 17.9547 18.4593C16.9773 19.2719 15.815 19.8317 14.5703 20.0893C13.3255 20.3468 12.0365 20.2942 10.8169 19.9362C9.59725 19.5781 8.48441 18.9256 7.57642 18.036C7.43426 17.8968 7.35324 17.7068 7.35118 17.5078C7.34912 17.3088 7.42618 17.1172 7.56542 16.975C7.70466 16.8328 7.89466 16.7518 8.09364 16.7498C8.29262 16.7477 8.48426 16.8248 8.62642 16.964C9.50552 17.8253 10.6193 18.4078 11.8282 18.6386C13.037 18.8694 14.2871 18.7382 15.4216 18.2614C16.5562 17.7846 17.5248 16.9835 18.2059 15.9585C18.887 14.9335 19.2503 13.7302 19.2503 12.4995C19.2503 11.2688 18.887 10.0655 18.2059 9.04052C17.5248 8.0155 16.5562 7.21438 15.4216 6.73759C14.2871 6.26081 13.037 6.1296 11.8282 6.3604C10.6193 6.5912 9.50552 7.17375 8.62642 8.035C8.55703 8.10789 8.47368 8.16607 8.38133 8.20607C8.28898 8.24607 8.18953 8.26708 8.0889 8.26784C7.98826 8.2686 7.8885 8.2491 7.79556 8.2105C7.70262 8.1719 7.6184 8.11499 7.54791 8.04316C7.47743 7.97133 7.42212 7.88605 7.38528 7.7924C7.34844 7.69875 7.33082 7.59864 7.33348 7.49804C7.33614 7.39744 7.35902 7.2984 7.40076 7.20682C7.4425 7.11525 7.50224 7.03301 7.57642 6.965C9.02373 5.54356 10.9718 4.74802 13.0004 4.75Z" fill="#CC0000"/>
<path d="M11.4697 10.0298C11.3372 9.88767 11.2651 9.69963 11.2685 9.50532C11.2719 9.31102 11.3506 9.12564 11.4881 8.98823C11.6255 8.85081 11.8109 8.7721 12.0052 8.76867C12.1995 8.76524 12.3875 8.83737 12.5297 8.96985L15.5297 11.9698C15.6701 12.1105 15.749 12.3011 15.749 12.4998C15.749 12.6986 15.6701 12.8892 15.5297 13.0298L12.5297 16.0298C12.461 16.1035 12.3782 16.1626 12.2862 16.2036C12.1942 16.2446 12.0949 16.2667 11.9942 16.2684C11.8935 16.2702 11.7935 16.2517 11.7001 16.214C11.6067 16.1762 11.5219 16.1201 11.4506 16.0489C11.3794 15.9777 11.3233 15.8928 11.2856 15.7994C11.2478 15.7061 11.2293 15.606 11.2311 15.5053C11.2329 15.4046 11.2549 15.3053 11.2959 15.2133C11.3369 15.1213 11.396 15.0385 11.4697 14.9698L13.1897 13.2498H3.99968C3.80077 13.2498 3.61001 13.1708 3.46935 13.0302C3.3287 12.8895 3.24968 12.6988 3.24968 12.4998C3.24968 12.3009 3.3287 12.1102 3.46935 11.9695C3.61001 11.8289 3.80077 11.7498 3.99968 11.7498H13.1897L11.4697 10.0298Z" fill="#CC0000"/>
</svg>
