<svg width="18" height="18" viewBox="0 0 18 18" fill="none" xmlns="http://www.w3.org/2000/svg">
<path d="M8.12597 17.5127C9.64803 16.9142 9.31454 15.2638 8.54496 14.2206C7.78393 13.1518 6.73217 12.4164 5.67186 11.7067C4.91517 11.23 4.23966 10.6354 3.67095 9.94518C3.43152 9.663 2.94412 9.1414 3.44008 9.03879C3.94458 8.93618 4.81677 9.43213 5.26142 9.62025C6.03955 9.94518 6.80913 10.3214 7.5274 10.7661L8.39104 9.31242C7.05711 8.43167 5.34693 7.65354 3.75646 7.42267C2.85006 7.28585 1.89236 7.47397 1.58453 8.45733C1.3109 9.30387 1.747 10.159 2.24295 10.8259C3.41442 12.3907 5.23576 13.1432 6.59536 14.4943C6.88609 14.7764 7.23667 15.1099 7.40769 15.5033C7.58726 15.8795 7.54451 15.9052 7.14261 15.9052C6.0823 15.9052 4.75691 15.0757 3.89327 14.5285L3.02963 15.9821C4.33792 16.7859 6.52695 18.0429 8.12597 17.5127ZM17.6089 4.17333C17.797 3.98521 17.797 3.67738 17.6089 3.49781L16.4973 2.38619C16.4079 2.29948 16.2883 2.25098 16.1638 2.25098C16.0393 2.25098 15.9197 2.29948 15.8303 2.38619L14.9581 3.25838L16.7367 5.03697M9.19483 9.02169V10.8003H10.9734L16.2322 5.54147L14.4536 3.76289L9.19483 9.02169Z" fill="white"/>
</svg>
