<svg width="16" height="16" viewBox="0 0 16 16" fill="none" xmlns="http://www.w3.org/2000/svg">
<path d="M9.71503 15.355H7.49804C7.47712 15.3481 7.44575 15.3377 7.40392 15.3239C7.36906 15.3101 7.32723 15.2963 7.27843 15.2825C7.22963 15.2617 7.18431 15.2445 7.14248 15.2307C7.10763 15.2169 7.07974 15.203 7.05882 15.1892H6.96471C6.77647 15.2583 6.59172 15.3032 6.41046 15.3239C6.22919 15.3446 6.0305 15.355 5.81438 15.355C5.68889 15.355 5.54597 15.3481 5.38562 15.3343C5.23224 15.3135 5.08235 15.2756 4.93595 15.2203C4.79651 15.1651 4.678 15.0891 4.58039 14.9924C4.48279 14.8957 4.43399 14.7645 4.43399 14.5988C4.43399 14.4744 4.47582 14.3605 4.55948 14.2569C4.65011 14.1464 4.75468 14.0808 4.8732 14.0601C4.90806 14.0601 4.97778 14.0566 5.08235 14.0497C5.18693 14.0428 5.29499 14.0359 5.40654 14.029C5.52505 14.0221 5.63312 14.0152 5.73072 14.0083C5.83529 14.0014 5.9085 13.9979 5.95033 13.9979C6.06885 13.9772 6.16993 13.9392 6.25359 13.884C6.33726 13.8218 6.41046 13.7493 6.4732 13.6664C6.53595 13.5836 6.58824 13.4972 6.63007 13.4075C6.67887 13.3108 6.72418 13.2141 6.76601 13.1174C6.75904 13.0622 6.75207 12.962 6.7451 12.817C6.73813 12.672 6.73464 12.52 6.73464 12.3612C6.73464 12.2023 6.73813 12.0539 6.7451 11.9157C6.75207 11.7776 6.75904 11.674 6.76601 11.605C6.76601 11.5773 6.77298 11.5083 6.78693 11.3978C6.80087 11.2804 6.81482 11.1561 6.82876 11.0249C6.8427 10.8936 6.85665 10.7728 6.87059 10.6623C6.88453 10.5518 6.8915 10.4793 6.8915 10.4448V10.393C6.8915 10.3722 6.88105 10.3308 6.86013 10.2686C6.83922 10.2065 6.82876 10.1685 6.82876 10.1547V10.0822C6.82876 10.02 6.83922 9.96133 6.86013 9.90608C6.88105 9.84392 6.8915 9.77141 6.8915 9.68854C6.8915 9.59876 6.88105 9.51243 6.86013 9.42956C6.83922 9.34669 6.82876 9.26036 6.82876 9.17058V9.01519C6.83573 8.98066 6.84619 8.89088 6.86013 8.74586C6.87407 8.59392 6.88802 8.43163 6.90196 8.25898C6.92288 8.08633 6.93682 7.92749 6.94379 7.78246C6.95773 7.63052 6.96471 7.53384 6.96471 7.4924V6.64296C6.97865 6.48412 7.01002 6.33218 7.05882 6.18715C7.10763 6.04213 7.13203 5.89019 7.13203 5.73135C7.13203 5.61395 7.1146 5.52072 7.07974 5.45166C7.05185 5.37569 7.03791 5.27901 7.03791 5.1616C7.03791 5.10635 7.04139 5.05456 7.04837 5.00622C7.05534 4.95097 7.08322 4.89917 7.13203 4.85083V3.18301C7.13203 3.17611 7.12157 3.14848 7.10065 3.10014C7.08671 3.0518 7.07277 3.01036 7.05882 2.97583C7.02397 2.89296 6.98911 2.79972 6.95425 2.69613C6.92636 2.59254 6.86362 2.51657 6.76601 2.46823C6.7451 2.46133 6.71024 2.44751 6.66144 2.4268C6.61961 2.40608 6.57081 2.38536 6.51503 2.36464C6.45926 2.33702 6.40349 2.31285 6.34771 2.29213C6.29891 2.27141 6.26405 2.2576 6.24314 2.25069H5.62614C5.18693 2.25069 4.76863 2.2645 4.37124 2.29213C3.97386 2.31285 3.56253 2.3232 3.13725 2.3232H2.69804C2.52375 2.41989 2.37386 2.52003 2.24837 2.62362C2.12985 2.7203 2.01481 2.83771 1.90327 2.97583C1.88932 2.97583 1.8719 2.99309 1.85098 3.02762C1.83704 3.06215 1.82309 3.08633 1.80915 3.10014C1.78126 3.17611 1.76035 3.23826 1.74641 3.2866C1.73246 3.33494 1.71503 3.37983 1.69412 3.42127C1.68017 3.46271 1.65926 3.50414 1.63137 3.54558C1.60349 3.58011 1.56863 3.62845 1.5268 3.69061C1.45011 3.78729 1.36993 3.88743 1.28627 3.99102C1.20959 4.08771 1.12593 4.18094 1.03529 4.27072C0.944662 4.3605 0.843573 4.43301 0.732026 4.48826C0.620479 4.54351 0.498475 4.57113 0.366013 4.57113C0.26841 4.57113 0.181264 4.55041 0.104575 4.50898C0.0348584 4.46754 0 4.38467 0 4.26036V4.20856C0 4.16713 0.00348584 4.10843 0.0104575 4.03246C0.0174292 3.94959 0.0244009 3.86671 0.0313726 3.78384C0.0453159 3.70097 0.0557734 3.625 0.0627451 3.55594C0.0697168 3.47997 0.0732026 3.42818 0.0732026 3.40055C0.0801743 3.36602 0.0836601 3.32113 0.0836601 3.26588C0.0906318 3.21064 0.0976035 3.15884 0.104575 3.1105C0.111547 3.05525 0.115033 3.00691 0.115033 2.96547C0.122004 2.92403 0.12549 2.90331 0.12549 2.90331C0.146405 2.8895 0.188235 2.85497 0.25098 2.79972C0.313726 2.73757 0.35207 2.69959 0.366013 2.68577C0.372985 2.67196 0.390414 2.62707 0.418301 2.55111C0.453159 2.47514 0.484532 2.39227 0.512418 2.30249C0.547277 2.21271 0.578649 2.12983 0.606536 2.05387C0.634423 1.97099 0.651852 1.9192 0.658824 1.89848V1.53591C0.665795 1.45994 0.693682 1.40815 0.742484 1.38052C0.791285 1.34599 0.840087 1.3011 0.888889 1.24586C0.951634 1.16298 1.00741 1.08011 1.05621 0.997238C1.10501 0.907459 1.16078 0.828039 1.22353 0.758978C1.28627 0.683011 1.35948 0.620856 1.44314 0.572514C1.5268 0.524171 1.63137 0.5 1.75686 0.5C1.86841 0.5 1.97298 0.524171 2.07059 0.572514C2.16819 0.61395 2.26231 0.669199 2.35294 0.73826C2.45054 0.800414 2.54466 0.866022 2.63529 0.935083C2.72593 0.997238 2.82004 1.04903 2.91765 1.09047C2.93159 1.09738 2.95599 1.10428 2.99085 1.11119C3.03268 1.11119 3.07451 1.11119 3.11634 1.11119C3.15817 1.11119 3.19651 1.11119 3.23137 1.11119C3.26623 1.11119 3.28715 1.11119 3.29412 1.11119C3.45447 1.11119 3.59041 1.09738 3.70196 1.06975C3.82048 1.03522 3.94946 1.01796 4.08889 1.01796C4.37473 1.01796 4.65359 1.04558 4.92549 1.10083C5.19739 1.15608 5.47974 1.1837 5.77255 1.1837C5.89107 1.1837 6.00959 1.16989 6.1281 1.14227C6.25359 1.10773 6.3756 1.09047 6.49412 1.09047H6.53595C6.65447 1.09738 6.80436 1.10773 6.98562 1.12155C7.17386 1.12845 7.35512 1.13881 7.52941 1.15262C7.71068 1.15953 7.86754 1.16644 8 1.17334C8.13246 1.18025 8.20566 1.1837 8.21961 1.1837C8.22658 1.1837 8.25098 1.18715 8.29281 1.19406C8.33464 1.20097 8.37647 1.20787 8.4183 1.21478C8.4671 1.22169 8.51242 1.22859 8.55425 1.2355C8.59608 1.2424 8.62397 1.24586 8.63791 1.24586H8.70065C9.07015 1.24586 9.42919 1.2355 9.77778 1.21478C10.1333 1.19406 10.4924 1.1837 10.8549 1.1837C10.9943 1.1837 11.1303 1.19406 11.2627 1.21478C11.4022 1.2355 11.5451 1.24586 11.6915 1.24586H11.9216C12.1237 1.24586 12.3224 1.23895 12.5176 1.22514C12.7129 1.21133 12.8941 1.16644 13.0614 1.09047C13.0963 1.09047 13.1277 1.08356 13.1556 1.06975C13.1904 1.04903 13.2148 1.03177 13.2288 1.01796C13.2427 1.01105 13.2776 0.986878 13.3333 0.945442C13.3891 0.904006 13.4484 0.859116 13.5111 0.810773C13.5808 0.755525 13.6401 0.707182 13.6889 0.665746C13.7447 0.624309 13.7795 0.596685 13.7935 0.582873C13.8004 0.582873 13.8214 0.57942 13.8562 0.572514C13.898 0.565608 13.9399 0.562155 13.9817 0.562155C14.0305 0.555249 14.0793 0.548343 14.1281 0.541436C14.1769 0.53453 14.2153 0.531077 14.2431 0.531077H14.3686C14.4802 0.531077 14.5569 0.57942 14.5987 0.676105C14.6405 0.765884 14.6893 0.855663 14.7451 0.945442C14.759 0.96616 14.7834 1.0076 14.8183 1.06975C14.8601 1.13191 14.8915 1.16989 14.9124 1.1837C14.9124 1.19061 14.9124 1.21823 14.9124 1.26657C14.9194 1.31492 14.9229 1.36671 14.9229 1.42196C14.9298 1.47721 14.9368 1.52901 14.9438 1.57735C14.9508 1.62569 14.9577 1.65331 14.9647 1.66022C14.9717 1.68094 14.9891 1.71892 15.017 1.77417C15.0449 1.82942 15.0728 1.89157 15.1007 1.96064C15.1355 2.02279 15.1669 2.08149 15.1948 2.13674C15.2296 2.19199 15.254 2.22997 15.268 2.25069C15.268 2.2645 15.2749 2.30249 15.2889 2.36464C15.3028 2.41989 15.3168 2.45442 15.3307 2.46823C15.3516 2.52348 15.39 2.61671 15.4458 2.74793C15.5015 2.87224 15.5608 3.00691 15.6235 3.15193C15.6863 3.29696 15.7455 3.43508 15.8013 3.5663C15.8641 3.69751 15.9059 3.79075 15.9268 3.84599C15.9268 3.85981 15.9268 3.89434 15.9268 3.94959C15.9338 3.99793 15.9407 4.05318 15.9477 4.11533C15.9547 4.17749 15.9617 4.23619 15.9686 4.29144C15.9756 4.34668 15.9861 4.38467 16 4.40539V4.49862C16 4.68508 15.9198 4.82666 15.7595 4.92334C15.5991 5.02003 15.4353 5.06837 15.268 5.06837C15.2401 5.06837 15.1983 5.06492 15.1425 5.05801C15.0867 5.05111 15.0519 5.04765 15.0379 5.04765C14.9264 4.95097 14.8078 4.84392 14.6824 4.72652C14.5638 4.60912 14.4662 4.4779 14.3895 4.33287C14.271 4.11188 14.156 3.89434 14.0444 3.68025C13.9399 3.45925 13.8144 3.26243 13.668 3.08978C13.5216 2.91713 13.3473 2.77555 13.1451 2.66506C12.9499 2.55456 12.7059 2.48895 12.4131 2.46823H11.1268C11.0989 2.45442 11.0466 2.43715 10.9699 2.41644C10.8932 2.38881 10.8514 2.375 10.8444 2.375H9.66275C9.63486 2.39572 9.5756 2.4268 9.48497 2.46823C9.39434 2.50276 9.33508 2.52693 9.30719 2.54075C9.29325 2.55456 9.2793 2.56492 9.26536 2.57182C9.24444 2.59254 9.23399 2.60635 9.23399 2.61326C9.22702 2.63398 9.22004 2.67196 9.21307 2.72721C9.2061 2.78246 9.19913 2.84116 9.19216 2.90331C9.18519 2.96547 9.17821 3.02417 9.17124 3.07942C9.16427 3.12776 9.16078 3.16229 9.16078 3.18301V3.25552C9.16078 3.27624 9.16427 3.32113 9.17124 3.39019C9.17821 3.45925 9.18519 3.53522 9.19216 3.61809C9.2061 3.70097 9.21656 3.77693 9.22353 3.84599C9.2305 3.91506 9.23399 3.95649 9.23399 3.9703V4.11533C9.23399 4.32251 9.22004 4.53315 9.19216 4.74724C9.17124 4.96133 9.16078 5.17541 9.16078 5.3895C9.16078 5.58978 9.17124 5.79351 9.19216 6.00069C9.22004 6.20097 9.23399 6.40815 9.23399 6.62224C9.23399 6.6982 9.2061 6.76727 9.15033 6.82942C9.09455 6.89157 9.06667 6.95718 9.06667 7.02624C9.06667 7.15055 9.08061 7.27486 9.1085 7.39917C9.14336 7.51657 9.16078 7.63398 9.16078 7.75138V8.08287C9.16078 8.08287 9.1573 8.10014 9.15033 8.13467C9.14336 8.16229 9.1329 8.19337 9.11895 8.2279C9.11198 8.25552 9.10501 8.2866 9.09804 8.32113C9.09107 8.34876 9.08758 8.36257 9.08758 8.36257V8.72514C9.08061 8.73895 9.07364 8.76657 9.06667 8.80801C9.0597 8.84945 9.05272 8.89434 9.04575 8.94268C9.03878 8.98412 9.02832 9.02555 9.01438 9.06699C9.00741 9.10843 9.00044 9.13605 8.99346 9.14986C8.93769 9.73688 8.88889 10.3204 8.84706 10.9006C8.8122 11.4738 8.79477 12.0573 8.79477 12.6512V12.8481C8.79477 12.924 8.79826 12.9965 8.80523 13.0656C8.8122 13.1347 8.83312 13.2279 8.86797 13.3453C8.88889 13.4075 8.92375 13.4834 8.97255 13.5732C9.02832 13.6561 9.09107 13.7389 9.16078 13.8218C9.23747 13.9047 9.31416 13.9772 9.39085 14.0394C9.47451 14.0946 9.55468 14.1222 9.63137 14.1222C9.73595 14.1222 9.83704 14.1084 9.93464 14.0808C10.0322 14.0463 10.1333 14.029 10.2379 14.029C10.3564 14.029 10.4924 14.0394 10.6458 14.0601C10.7991 14.0808 10.942 14.1188 11.0745 14.174C11.2139 14.2293 11.329 14.3052 11.4196 14.4019C11.5172 14.4986 11.566 14.6264 11.566 14.7852C11.566 14.8543 11.5486 14.9302 11.5137 15.0131C11.4858 15.0891 11.444 15.1616 11.3882 15.2307C11.3394 15.2997 11.2767 15.3584 11.2 15.4068C11.1303 15.462 11.0536 15.4931 10.9699 15.5C10.9351 15.5 10.8723 15.4965 10.7817 15.4896C10.698 15.4827 10.6039 15.4758 10.4993 15.4689C10.4017 15.462 10.3076 15.4551 10.217 15.4482C10.1264 15.4413 10.0636 15.4344 10.0288 15.4275C10.0009 15.4275 9.94858 15.4137 9.8719 15.386C9.80218 15.3653 9.74989 15.355 9.71503 15.355Z" fill="white"/>
</svg>
