<svg width="30" height="30" viewBox="0 0 30 30" fill="none" xmlns="http://www.w3.org/2000/svg">
<path d="M18 21.75H13.5C12.255 21.75 11.25 22.755 11.25 24V25.5H12.75V24C12.75 23.5875 13.0875 23.25 13.5 23.25H18C18.4125 23.25 18.75 23.5875 18.75 24V25.5H20.25V24C20.25 22.755 19.245 21.75 18 21.75ZM12.75 18C12.75 19.6575 14.0925 21 15.75 21C17.4075 21 18.75 19.6575 18.75 18C18.75 16.3425 17.4075 15 15.75 15C14.0925 15 12.75 16.3425 12.75 18ZM17.25 18C17.25 18.825 16.575 19.5 15.75 19.5C14.925 19.5 14.25 18.825 14.25 18C14.25 17.175 14.925 16.5 15.75 16.5C16.575 16.5 17.25 17.175 17.25 18ZM19.5 16.5C20.325 16.5 21 17.175 21 18C21 18.825 20.325 19.5 19.5 19.5V21C21.1575 21 22.5 19.6575 22.5 18C22.5 16.3425 21.1575 15 19.5 15V16.5ZM21.75 21.75H21V23.25H21.75C22.1625 23.25 22.5 23.5875 22.5 24V25.5H24V24C24 22.755 22.995 21.75 21.75 21.75ZM7.5 6H19.5V13.5H21V6C21 5.175 20.325 4.5 19.5 4.5H7.5C6.675 4.5 6 5.175 6 6V24C6 24.825 6.675 25.5 7.5 25.5H9.75V24H7.5V6Z" fill="white"/>
</svg>
