<svg width="30" height="30" viewBox="0 0 30 30" fill="none" xmlns="http://www.w3.org/2000/svg">
<path d="M10.192 16.616H11.266C11.3733 16.616 11.4733 16.5973 11.566 16.56C11.6593 16.5227 11.7493 16.4603 11.836 16.373L16.858 11.346C16.944 11.2473 17.0083 11.144 17.051 11.036C17.0937 10.928 17.1153 10.8207 17.116 10.714C17.1167 10.6073 17.095 10.5017 17.051 10.397C17.0083 10.293 16.946 10.1913 16.864 10.092L15.939 9.142C15.8523 9.056 15.753 8.99167 15.641 8.949C15.5277 8.90633 15.416 8.885 15.306 8.885C15.1993 8.885 15.0927 8.90333 14.986 8.94C14.88 8.976 14.7777 9.04333 14.679 9.142L9.627 14.164C9.54033 14.2507 9.47833 14.3407 9.441 14.434C9.40367 14.5267 9.385 14.6267 9.385 14.734V15.808C9.385 16.04 9.46167 16.2327 9.615 16.386C9.76833 16.5393 9.96067 16.616 10.192 16.616ZM15.3 11.689L14.35 10.744L15.306 9.789L16.231 10.739L15.3 11.689ZM14.816 16.616H20.116C20.258 16.616 20.3767 16.568 20.472 16.472C20.568 16.3767 20.616 16.258 20.616 16.116C20.616 15.9733 20.568 15.8543 20.472 15.759C20.3767 15.6637 20.2577 15.616 20.115 15.616H15.815L14.816 16.616ZM9.077 20L7.373 21.704C7.12033 21.9567 6.82833 22.0147 6.497 21.878C6.16567 21.7413 6 21.493 6 21.133V7.616C6 7.15533 6.15433 6.771 6.463 6.463C6.77167 6.155 7.156 6.00067 7.616 6H22.385C22.845 6 23.2293 6.15433 23.538 6.463C23.8467 6.77167 24.0007 7.156 24 7.616V18.385C24 18.845 23.846 19.2293 23.538 19.538C23.23 19.8467 22.8457 20.0007 22.385 20H9.077Z" fill="white"/>
</svg>
